<?xml version="1.0" encoding="iso-8859-1"?>
<!-- Generator: Adobe Illustrator 19.0.0, SVG Export Plug-In . SVG Version: 6.00 Build 0)  -->
<svg version="1.1" id="Layer_1" xmlns="http://www.w3.org/2000/svg" xmlns:xlink="http://www.w3.org/1999/xlink" x="0px" y="0px"
	 viewBox="0 0 512 512" style="enable-background:new 0 0 512 512;" xml:space="preserve">
<g>
	<g>
		<path d="M332.96,0H84.977c-4.428,0-8.017,3.588-8.017,8.017v282.189c0,4.428,3.588,8.017,8.017,8.017
			c4.428,0,8.017-3.588,8.017-8.017V16.033H332.96c4.428,0,8.017-3.588,8.017-8.017C340.977,3.588,337.389,0,332.96,0z"/>
	</g>
</g>
<g>
	<g>
		<path d="M264.551,59.858H127.733c-4.428,0-8.017,3.588-8.017,8.017v162.472c0,4.428,3.588,8.017,8.017,8.017h136.818
			c4.428,0,8.017-3.588,8.017-8.017V67.875C272.568,63.446,268.98,59.858,264.551,59.858z M222.33,222.33h-52.376v-43.29
			c0-5.01,4.076-9.086,9.086-9.086h34.205c5.01,0,9.086,4.076,9.086,9.086V222.33z M256.534,222.33h-18.171v-43.29
			c0-13.851-11.268-25.119-25.119-25.119H179.04c-13.851,0-25.119,11.268-25.119,25.119v43.29h-18.171V75.891h120.785V222.33z"/>
	</g>
</g>
<g>
	<g>
		<path d="M196.142,85.511c-18.566,0-33.67,15.105-33.67,33.67s15.105,33.67,33.67,33.67s33.67-15.105,33.67-33.67
			S214.708,85.511,196.142,85.511z M196.142,136.818c-9.725,0-17.637-7.912-17.637-17.637s7.912-17.637,17.637-17.637
			s17.637,7.912,17.637,17.637S205.867,136.818,196.142,136.818z"/>
	</g>
</g>
<g>
	<g>
		<path d="M384.267,76.96h-85.511c-4.428,0-8.017,3.588-8.017,8.017c0,4.428,3.588,8.017,8.017,8.017h85.511
			c4.428,0,8.017-3.588,8.017-8.017C392.284,80.549,388.696,76.96,384.267,76.96z"/>
	</g>
</g>
<g>
	<g>
		<path d="M384.267,119.716h-85.511c-4.428,0-8.017,3.588-8.017,8.017s3.588,8.017,8.017,8.017h85.511
			c4.428,0,8.017-3.588,8.017-8.017S388.696,119.716,384.267,119.716z"/>
	</g>
</g>
<g>
	<g>
		<path d="M384.267,162.472h-85.511c-4.428,0-8.017,3.588-8.017,8.017s3.588,8.017,8.017,8.017h85.511
			c4.428,0,8.017-3.588,8.017-8.017S388.696,162.472,384.267,162.472z"/>
	</g>
</g>
<g>
	<g>
		<path d="M384.267,205.228h-85.511c-4.428,0-8.017,3.588-8.017,8.017s3.588,8.017,8.017,8.017h85.511
			c4.428,0,8.017-3.588,8.017-8.017S388.696,205.228,384.267,205.228z"/>
	</g>
</g>
<g>
	<g>
		<path d="M161.937,273.637h-8.551c-4.428,0-8.017,3.588-8.017,8.017c0,4.428,3.588,8.017,8.017,8.017h8.551
			c4.428,0,8.017-3.588,8.017-8.017C169.954,277.225,166.366,273.637,161.937,273.637z"/>
	</g>
</g>
<g>
	<g>
		<path d="M315.858,273.637H196.142c-4.428,0-8.017,3.588-8.017,8.017c0,4.428,3.588,8.017,8.017,8.017h119.716
			c4.428,0,8.017-3.588,8.017-8.017C323.875,277.225,320.286,273.637,315.858,273.637z"/>
	</g>
</g>
<g>
	<g>
		<path d="M161.937,316.393h-8.551c-4.428,0-8.017,3.588-8.017,8.017c0,4.428,3.588,8.017,8.017,8.017h8.551
			c4.428,0,8.017-3.588,8.017-8.017C169.954,319.981,166.366,316.393,161.937,316.393z"/>
	</g>
</g>
<g>
	<g>
		<path d="M315.858,316.393H196.142c-4.428,0-8.017,3.588-8.017,8.017c0,4.428,3.588,8.017,8.017,8.017h119.716
			c4.428,0,8.017-3.588,8.017-8.017C323.875,319.981,320.286,316.393,315.858,316.393z"/>
	</g>
</g>
<g>
	<g>
		<path d="M161.937,359.148h-8.551c-4.428,0-8.017,3.588-8.017,8.017c0,4.428,3.588,8.017,8.017,8.017h8.551
			c4.428,0,8.017-3.588,8.017-8.017C169.954,362.737,166.366,359.148,161.937,359.148z"/>
	</g>
</g>
<g>
	<g>
		<path d="M315.858,359.148H196.142c-4.428,0-8.017,3.588-8.017,8.017c0,4.428,3.588,8.017,8.017,8.017h119.716
			c4.428,0,8.017-3.588,8.017-8.017C323.875,362.737,320.286,359.148,315.858,359.148z"/>
	</g>
</g>
<g>
	<g>
		<path d="M435.04,256.924V8.017c0-4.428-3.588-8.017-8.017-8.017h-51.307c-4.428,0-8.017,3.588-8.017,8.017
			c0,4.428,3.588,8.017,8.017,8.017h43.29v240.89c-43.11,4.054-76.96,40.435-76.96,84.588c0,44.153,33.851,80.534,76.96,84.588
			v26.577c0,23.871-19.42,43.29-43.29,43.29c-23.87,0-43.29-19.42-43.29-43.29v-34.205c0-4.428-3.588-8.017-8.017-8.017H92.994
			v-77.493c0-4.428-3.588-8.017-8.017-8.017c-4.428,0-8.017,3.588-8.017,8.017v77.493H8.017c-4.428,0-8.017,3.588-8.017,8.017
			v34.205C0,485.388,26.612,512,59.324,512h316.392c32.711,0,59.324-26.612,59.324-59.324v-26.577
			c43.11-4.054,76.96-40.435,76.96-84.588C512,297.359,478.149,260.978,435.04,256.924z M59.324,495.967
			c-23.871,0-43.29-19.42-43.29-43.29v-26.188h300.359v26.188c0,17.058,7.237,32.458,18.802,43.29H59.324z M427.023,410.455
			c-38.015,0-68.944-30.928-68.944-68.944c0-38.002,30.906-68.92,68.902-68.943c0.014,0,0.027,0.002,0.042,0.002
			c0.015,0,0.028-0.002,0.042-0.002c37.996,0.022,68.902,30.94,68.902,68.943C495.967,379.527,465.038,410.455,427.023,410.455z"/>
	</g>
</g>
<g>
	<g>
		<path d="M427.023,333.495c-5.01,0-9.086-4.076-9.086-9.086c0-5.01,4.076-9.086,9.086-9.086h17.102
			c4.428,0,8.017-3.588,8.017-8.017c0-4.428-3.588-8.017-8.017-8.017h-9.086v-9.086c0-4.428-3.588-8.017-8.017-8.017
			c-4.428,0-8.017,3.588-8.017,8.017v10.405c-9.93,3.354-17.102,12.752-17.102,23.8c0,13.851,11.268,25.119,25.119,25.119
			c5.01,0,9.086,4.076,9.086,9.086c0,5.01-4.076,9.086-9.086,9.086h-17.102c-4.428,0-8.017,3.588-8.017,8.017
			c0,4.428,3.588,8.017,8.017,8.017h9.086v9.086c0,4.428,3.588,8.017,8.017,8.017c4.428,0,8.017-3.588,8.017-8.017v-10.405
			c9.93-3.354,17.102-12.752,17.102-23.8C452.142,344.763,440.874,333.495,427.023,333.495z"/>
	</g>
</g>
<g>
</g>
<g>
</g>
<g>
</g>
<g>
</g>
<g>
</g>
<g>
</g>
<g>
</g>
<g>
</g>
<g>
</g>
<g>
</g>
<g>
</g>
<g>
</g>
<g>
</g>
<g>
</g>
<g>
</g>
</svg>
